# xmcd
#
# Track frame offsets: 
#        300
#        13380
#        31781
#        44506
#        69808
#        86287
#        104135
#        121698
#        134571
#        155953
#        167164
#        181139
#
# Disc length: 2743 seconds
#
# Revision: 1
# Processed by: cddbd v1.5.2PL0 Copyright (c) Steve Scherf et al.
# Submitted via: ExactAudioCopy v1.0b1
#
DISCID=a10ab30c
DTITLE=Valerie Wellington - Million Dollar Secret
DYEAR=1995
DGENRE=Blues
TTITLE0=Down In The Dumps
TTITLE1=Million Dollar Secret
TTITLE2=Independent Blues
TTITLE3=Cold,Cold Secret
TTITLE4=Smokestack Lightning
TTITLE5=Dirt No-Gooders Blues
TTITLE6=My Baby Treats Me Like A Stepchild
TTITLE7=You Can't Have My Monkey
TTITLE8=Bad Avenue
TTITLE9=Love Don't Love Nobody
TTITLE10=Wild About You
TTITLE11=Voodo Blues
EXTD=
EXTT0=
EXTT1=
EXTT2=
EXTT3=
EXTT4=
EXTT5=
EXTT6=
EXTT7=
EXTT8=
EXTT9=
EXTT10=
EXTT11=
PLAYORDER=
